# Blender v3.1.2 OBJ File: 'alat.blend'
# www.blender.org
mtllib alat.mtl
o Cube
v 1.000000 0.468727 -0.468727
v 0.338343 -1.000000 -0.387391
v 1.000000 1.000000 1.000000
v 1.000000 -0.468727 0.468727
v -1.000000 0.260766 -0.260766
v -0.338343 -1.000000 -0.387391
v -1.000000 1.000000 1.000000
v -1.000000 -0.260766 0.260766
v -1.000000 -1.000000 0.000000
v 0.000000 -0.351023 -0.387391
v 1.000000 0.000000 -1.000000
v -1.000000 0.000000 1.000000
v 1.000000 0.000000 1.000000
v -1.000000 0.000000 -1.000000
v 0.000000 0.383534 0.507753
v 0.496112 0.376593 0.000000
v 0.000000 -1.000000 1.000000
v -0.496112 0.376593 0.000000
v 0.000000 1.000000 -1.000000
v 1.000000 -1.000000 0.000000
v 0.000000 0.000000 -0.399576
v 0.759148 0.000000 0.000000
v 0.000000 -0.125487 0.000000
v -0.770263 0.000000 0.000000
v 0.000000 0.000000 1.000000
v 0.000000 0.735611 0.000000
vt 0.750000 0.625000
vt 0.875000 0.625000
vt 0.875000 0.750000
vt 0.750000 0.750000
vt 0.500000 0.875000
vt 0.625000 0.875000
vt 0.625000 1.000000
vt 0.500000 1.000000
vt 0.500000 0.125000
vt 0.625000 0.125000
vt 0.625000 0.250000
vt 0.500000 0.250000
vt 0.250000 0.625000
vt 0.375000 0.625000
vt 0.375000 0.750000
vt 0.250000 0.750000
vt 0.500000 0.625000
vt 0.625000 0.625000
vt 0.625000 0.750000
vt 0.500000 0.750000
vt 0.500000 0.375000
vt 0.625000 0.375000
vt 0.625000 0.500000
vt 0.500000 0.500000
vt 0.375000 0.375000
vt 0.375000 0.500000
vt 0.375000 0.250000
vt 0.125000 0.625000
vt 0.125000 0.750000
vt 0.125000 0.500000
vt 0.250000 0.500000
vt 0.375000 0.125000
vt 0.375000 0.000000
vt 0.500000 0.000000
vt 0.625000 0.000000
vt 0.375000 0.875000
vt 0.375000 1.000000
vt 0.750000 0.500000
vt 0.875000 0.500000
vn 0.1247 0.9829 -0.1352
vn 0.3178 0.3178 0.8933
vn -0.8323 -0.2280 0.5053
vn -0.2219 -0.9495 -0.2219
vn 0.9042 0.1728 -0.3906
vn -0.0470 -0.0470 -0.9978
vn -0.4708 -0.1698 -0.8658
vn 0.4708 -0.1698 -0.8658
vn -0.1088 0.1088 -0.9881
vn 0.9399 0.2415 -0.2415
vn 0.9190 -0.2787 -0.2787
vn 0.8920 -0.0065 0.4519
vn 0.1061 -0.9887 -0.1061
vn 0.5770 -0.5069 0.6404
vn -0.5770 -0.5069 0.6404
vn -0.9152 -0.2849 -0.2849
vn -0.8488 0.3739 -0.3739
vn -0.9040 0.1800 -0.3877
vn -0.4514 -0.4514 0.7698
vn 0.3220 -0.3220 0.8903
vn -0.3178 0.3178 0.8933
vn -0.1247 0.9829 -0.1352
vn 0.3883 0.8561 0.3410
vn -0.4709 0.8344 0.2865
usemtl Material
s off
f 26/1/1 18/2/1 7/3/1 15/4/1
f 25/5/2 15/6/2 7/7/2 12/8/2
f 24/9/3 18/10/3 5/11/3 14/12/3
f 23/13/4 20/14/4 4/15/4 17/16/4
f 22/17/5 16/18/5 3/19/5 13/20/5
f 21/21/6 19/22/6 1/23/6 11/24/6
f 10/25/7 21/21/7 11/24/7 2/26/7
f 6/27/8 14/12/8 21/21/8 10/25/8
f 14/12/9 5/11/9 19/22/9 21/21/9
f 20/14/10 22/17/10 13/20/10 4/15/10
f 2/26/11 11/24/11 22/17/11 20/14/11
f 11/24/12 1/23/12 16/18/12 22/17/12
f 9/28/13 23/13/13 17/16/13 8/29/13
f 6/30/14 10/31/14 23/13/14 9/28/14
f 10/31/15 2/26/15 20/14/15 23/13/15
f 9/32/16 24/9/16 14/12/16 6/27/16
f 8/33/17 12/34/17 24/9/17 9/32/17
f 12/34/18 7/35/18 18/10/18 24/9/18
f 17/36/19 25/5/19 12/8/19 8/37/19
f 4/15/20 13/20/20 25/5/20 17/36/20
f 13/20/21 3/19/21 15/6/21 25/5/21
f 16/18/22 26/1/22 15/4/22 3/19/22
f 1/23/23 19/38/23 26/1/23 16/18/23
f 19/38/24 5/39/24 18/2/24 26/1/24
